<svg width="14" height="14" viewBox="0 0 14 14" fill="none" xmlns="http://www.w3.org/2000/svg">
<path fill-rule="evenodd" clip-rule="evenodd" d="M6.67218 0C2.98264 0 0 3.05554 0 6.83567C0 9.85732 1.91108 12.4151 4.56225 13.3204C4.89372 13.3884 5.01513 13.1733 5.01513 12.9923C5.01513 12.8338 5.00421 12.2906 5.00421 11.7247C3.14817 12.1322 2.76166 10.9098 2.76166 10.9098C2.46338 10.1176 2.02143 9.91399 2.02143 9.91399C1.41395 9.49524 2.06568 9.49524 2.06568 9.49524C2.73954 9.54052 3.09313 10.1969 3.09313 10.1969C3.68954 11.238 4.65062 10.9438 5.03726 10.7627C5.09243 10.3213 5.2693 10.0158 5.45708 9.84607C3.97676 9.6876 2.41927 9.09913 2.41927 6.47345C2.41927 5.7265 2.68422 5.1154 3.10405 4.64012C3.03781 4.4704 2.80577 3.7686 3.17043 2.82929C3.17043 2.82929 3.73379 2.64818 5.00407 3.53096C5.54792 3.38133 6.10878 3.30521 6.67218 3.30457C7.23555 3.30457 7.80984 3.38387 8.34016 3.53096C9.61057 2.64818 10.1739 2.82929 10.1739 2.82929C10.5386 3.7686 10.3064 4.4704 10.2402 4.64012C10.6711 5.1154 10.9251 5.7265 10.9251 6.47345C10.9251 9.09913 9.36761 9.67621 7.87622 9.84607C8.11932 10.0611 8.3291 10.4684 8.3291 11.1136C8.3291 12.0302 8.31817 12.7659 8.31817 12.9922C8.31817 13.1733 8.43972 13.3884 8.77105 13.3205C11.4222 12.4149 13.3333 9.85732 13.3333 6.83567C13.3442 3.05554 10.3507 0 6.67218 0Z" fill="#FAFAFF"/>
</svg>
