<svg width="13" height="13" viewBox="0 0 13 13" fill="none" xmlns="http://www.w3.org/2000/svg">
<path d="M3.7494 0.0447602C3.06844 0.0768883 2.60341 0.185561 2.19688 0.345305C1.77614 0.509274 1.41954 0.729307 1.06472 1.0854C0.709901 1.4415 0.491404 1.79837 0.328588 2.21974C0.171019 2.62717 0.0642666 3.09258 0.0341865 3.77393C0.0041064 4.45527 -0.00254963 4.67428 0.00077838 6.41227C0.00410639 8.15026 0.0117864 8.36812 0.0448105 9.05087C0.0773226 9.73171 0.185611 10.1966 0.345356 10.6033C0.50958 11.024 0.729357 11.3805 1.08558 11.7354C1.44181 12.0904 1.79842 12.3084 2.22082 12.4714C2.62786 12.6287 3.0934 12.736 3.77462 12.7658C4.45583 12.7957 4.6751 12.8026 6.41258 12.7992C8.15006 12.7959 8.36881 12.7882 9.05143 12.7558C9.73406 12.7235 10.1965 12.6144 10.6033 12.4554C11.024 12.2908 11.3808 12.0714 11.7355 11.7151C12.0902 11.3587 12.3085 11.0016 12.4712 10.58C12.6289 10.1729 12.7361 9.70739 12.7656 9.02668C12.7954 8.34354 12.8025 8.12543 12.7992 6.38769C12.7958 4.64996 12.788 4.4321 12.7556 3.74961C12.7233 3.06711 12.6148 2.60362 12.4552 2.1967C12.2907 1.77597 12.0712 1.41974 11.7151 1.06454C11.359 0.709338 11.0016 0.491098 10.5801 0.328793C10.1728 0.171225 9.70756 0.0638323 9.02635 0.0343922C8.34513 0.00495209 8.12586 -0.00259994 6.38774 0.000728074C4.64963 0.00405609 4.43203 0.0114801 3.7494 0.0447602ZM3.82415 11.6145C3.20015 11.5873 2.86133 11.4836 2.63554 11.3969C2.33653 11.2817 2.12354 11.1424 1.89851 10.9196C1.67349 10.6967 1.53525 10.4829 1.41851 10.1846C1.33083 9.95878 1.22523 9.62035 1.19605 8.99634C1.1643 8.32191 1.15765 8.11941 1.15393 6.41073C1.15022 4.70206 1.15675 4.49982 1.18632 3.82513C1.21294 3.20164 1.31726 2.86243 1.40392 2.63677C1.51912 2.33738 1.65787 2.12477 1.88123 1.89987C2.10459 1.67497 2.31771 1.53648 2.61634 1.41974C2.84188 1.33168 3.18031 1.22697 3.80406 1.19728C4.479 1.16528 4.68124 1.15888 6.38966 1.15516C8.09809 1.15145 8.30084 1.15785 8.97604 1.18755C9.59953 1.21468 9.93886 1.31798 10.1643 1.40515C10.4634 1.52035 10.6763 1.65872 10.9012 1.88246C11.1261 2.10621 11.2647 2.31856 11.3814 2.61783C11.4696 2.84272 11.5743 3.18103 11.6038 3.80516C11.6359 4.4801 11.6432 4.68247 11.6463 6.39077C11.6493 8.09906 11.6433 8.30194 11.6137 8.97638C11.5865 9.60038 11.4831 9.93932 11.3961 10.1654C11.2809 10.4643 11.1421 10.6774 10.9186 10.9021C10.6951 11.1269 10.4822 11.2654 10.1835 11.3821C9.95819 11.4701 9.61937 11.575 8.99614 11.6047C8.32119 11.6365 8.11895 11.6431 6.40989 11.6468C4.70083 11.6506 4.49923 11.6436 3.82428 11.6145M9.04158 2.97943C9.04183 3.13133 9.08713 3.27975 9.17174 3.40592C9.25635 3.53208 9.37647 3.63031 9.51692 3.6882C9.65737 3.74609 9.81182 3.76102 9.96076 3.73112C10.1097 3.70122 10.2464 3.62782 10.3536 3.52021C10.4609 3.4126 10.5337 3.27561 10.5631 3.12656C10.5925 2.97752 10.577 2.82312 10.5186 2.68288C10.4602 2.54265 10.3615 2.42289 10.235 2.33874C10.1085 2.25459 9.95995 2.20984 9.80804 2.21014C9.6044 2.21055 9.40926 2.29182 9.26552 2.43608C9.12179 2.58034 9.04124 2.77578 9.04158 2.97943ZM3.11388 6.40638C3.11746 8.22143 4.59151 9.68947 6.40618 9.68601C8.22084 9.68255 9.6899 8.20863 9.68644 6.39358C9.68299 4.57854 8.20855 3.11011 6.39363 3.1137C4.57871 3.11728 3.11042 4.59159 3.11388 6.40638ZM4.26665 6.40408C4.26581 5.98214 4.39012 5.56942 4.62384 5.21813C4.85757 4.86683 5.19021 4.59273 5.57972 4.43049C5.96922 4.26825 6.39809 4.22515 6.81209 4.30665C7.22609 4.38815 7.60662 4.59058 7.90557 4.88834C8.20452 5.18611 8.40845 5.56584 8.49159 5.97951C8.57473 6.39318 8.53333 6.82222 8.37263 7.21236C8.21193 7.60251 7.93915 7.93624 7.58878 8.17135C7.23842 8.40646 6.8262 8.5324 6.40426 8.53324C6.12409 8.53383 5.84655 8.47922 5.58748 8.37253C5.32842 8.26584 5.09292 8.10917 4.89441 7.91145C4.69591 7.71373 4.5383 7.47885 4.43059 7.22021C4.32288 6.96157 4.26717 6.68425 4.26665 6.40408Z" fill="#FAFAFF"/>
</svg>
