<svg width="13" height="11" viewBox="0 0 13 11" fill="none" xmlns="http://www.w3.org/2000/svg">
<path d="M11.4896 2.58926C11.4974 2.7021 11.4974 2.81494 11.4974 2.92882C11.4974 6.39884 8.85574 10.4008 4.02538 10.4008V10.3987C2.59848 10.4008 1.20122 9.99209 0 9.22144C0.207483 9.2464 0.416007 9.25888 0.62505 9.2594C1.80755 9.26044 2.95625 8.86367 3.88654 8.13306C2.7628 8.11174 1.77739 7.37905 1.43314 6.3094C1.82679 6.38532 2.23239 6.36972 2.61876 6.26415C1.39362 6.01663 0.512208 4.94021 0.512208 3.69011C0.512208 3.67867 0.512208 3.66775 0.512208 3.65683C0.877254 3.86016 1.28598 3.973 1.70407 3.98548C0.550169 3.21431 0.194483 1.67924 0.891294 0.479064C2.22459 2.11969 4.19179 3.11707 6.30354 3.22263C6.0919 2.31053 6.38102 1.35476 7.06327 0.713588C8.12097 -0.280668 9.78447 -0.229707 10.7787 0.827469C11.3669 0.711508 11.9305 0.495704 12.4464 0.189939C12.2504 0.797829 11.8401 1.3142 11.292 1.64232C11.8125 1.58096 12.3211 1.4416 12.8 1.22892C12.4474 1.75724 12.0033 2.21745 11.4896 2.58926Z" fill="#FAFAFF"/>
</svg>
