<svg width="192" height="25" viewBox="0 0 192 25" fill="none" xmlns="http://www.w3.org/2000/svg">
<g opacity="0.75" clip-path="url(#clip0_3995_623)">
<path d="M34.6527 9.98401V6.63977L30.0663 7.00605V24.635H34.6527V15.0641C34.6527 13.376 35.2737 11.9746 36.3726 10.9873C37.4714 9.99994 39.048 9.42664 41.0067 9.42664C42.3285 9.42664 43.3796 9.87254 44.0962 10.6529C44.8128 11.4332 45.2269 12.5798 45.2269 13.9812V24.635H49.8132V12.7709C49.8132 10.8917 49.1444 9.33109 47.8704 8.26412C46.5805 7.19714 44.7332 6.6557 42.4878 6.6557C40.7997 6.6557 39.1754 6.99012 37.758 7.62712C36.5 8.20042 35.433 9.01259 34.6527 9.98401Z" fill="#FAFAFF"/>
<path fill-rule="evenodd" clip-rule="evenodd" d="M75.357 24.6192V0.0150757L70.7706 0.38135V9.39489C68.8278 7.62721 66.2957 6.65579 63.5725 6.65579C60.8334 6.65579 58.4925 7.46796 56.8363 9.04453C55.1482 10.637 54.2723 12.9143 54.2723 15.6056C54.2723 18.4243 55.1801 20.7812 56.8363 22.4215C58.4765 24.0618 60.8334 24.9854 63.6522 24.9854C66.6779 24.9854 69.4011 23.8866 71.1687 21.9278V24.6351L75.357 24.6192ZM60.6901 11.0511C61.6934 9.88856 63.0948 9.17194 64.735 9.17194C66.4868 9.17194 67.9997 9.88856 69.0826 11.0511C70.1655 12.2136 70.8343 13.8539 70.8343 15.7808C70.8343 17.7714 70.1973 19.4276 69.1303 20.6061C68.0634 21.7686 66.5505 22.4534 64.751 22.4534C63.0789 22.4534 61.6615 21.7686 60.6583 20.5901C59.655 19.4117 59.0498 17.7236 59.0498 15.7012C59.0658 13.822 59.7028 12.2136 60.6901 11.0511ZM123.18 9.25156C122.829 8.63049 122.288 8.13681 121.571 7.77054C120.186 7.00614 117.972 6.65579 114.899 6.65579C112.048 6.65579 108.863 7.03799 105.821 7.67499L105.535 7.73869L106.299 9.69746L106.49 9.66561C109.277 9.29933 111.793 9.17194 114.15 9.17194C116.013 9.17194 117.272 9.37896 118.052 9.79301C118.434 10 118.705 10.2548 118.864 10.5415C119.039 10.8441 119.119 11.2103 119.119 11.6403V12.9143C119.119 12.9143 113.163 13.2647 111.188 13.408C109.07 13.615 107.334 14.252 106.14 15.2712C104.93 16.2904 104.277 17.6918 104.277 19.348C104.277 21.1794 105.009 22.6126 106.443 23.584C107.796 24.5077 109.771 24.9695 112.112 24.9695C114.373 24.9695 117.224 24.4121 119.485 21.7686V24.6192H123.689V11.4492C123.689 10.5893 123.53 9.85671 123.18 9.25156ZM119.135 18.4562C119.135 19.3002 118.577 20.2239 117.574 20.9405C116.539 21.6571 115.376 22.1508 113.593 22.1508C112.144 22.1508 111.029 21.8801 110.265 21.3864C109.468 20.8609 109.054 20.0805 109.054 19.0454C109.054 18.0103 109.405 17.1663 110.01 16.5452C110.615 15.9241 111.523 15.526 112.653 15.4145C114.262 15.2871 119.135 14.9686 119.135 14.9686V18.4562Z" fill="#FAFAFF"/>
<path d="M131.986 7.00598H126.699L135.872 24.6349H139.439L148.803 7.00598H145.729L138.754 20.1441L131.986 7.00598Z" fill="#FAFAFF"/>
<path fill-rule="evenodd" clip-rule="evenodd" d="M160.954 6.6557C157.785 6.6557 155.03 7.46787 153.039 9.02852C150.953 10.6688 149.854 13.0257 149.854 15.8126C149.854 18.5994 150.953 20.9404 153.039 22.5807C155.046 24.1572 157.785 24.9853 160.954 24.9853C164.107 24.9853 166.846 24.1572 168.821 22.5807C170.891 20.9404 171.974 18.5835 171.974 15.8126C171.974 13.0257 170.875 10.6688 168.821 9.02852C166.83 7.46787 164.107 6.6557 160.954 6.6557ZM156.447 10.9554C157.562 9.76107 159.106 8.9489 160.922 8.9489C164.569 8.9489 167.133 11.7676 167.133 15.7489C167.149 17.7554 166.464 19.4275 165.365 20.6219C164.266 21.8322 162.721 22.6603 160.922 22.6603C159.106 22.6603 157.562 21.8322 156.447 20.6219C155.332 19.4116 154.647 17.7395 154.647 15.7489C154.647 13.7901 155.348 12.1339 156.447 10.9554Z" fill="#FAFAFF"/>
<path d="M180.828 10.8441V6.63989L176.242 7.00617V24.6351H180.828V17.23C180.828 15.2075 181.433 13.4876 182.564 12.2773C183.742 11.0033 184.555 10.2867 186.02 9.84081C187.134 9.50639 187.947 9.49046 188.886 9.49046H189.746L191.132 6.83099L190.797 6.78322C190.256 6.70359 189.189 6.65582 188.392 6.65582C185.303 6.65582 182.452 8.24831 180.828 10.8441Z" fill="#FAFAFF"/>
<path fill-rule="evenodd" clip-rule="evenodd" d="M5.30314 14.1404C6.13124 9.74514 10.6062 6.6557 15.3518 6.6557C22.518 6.6557 25.0979 11.8154 25.0979 14.6023C25.0979 15.1756 24.9864 15.6215 24.6679 15.924C24.3494 16.2266 23.9035 16.3222 23.3621 16.3222H9.69843C9.93731 18.3287 10.845 19.8575 12.1509 20.8926C13.5204 21.9914 15.3518 22.5488 17.3265 22.5488C19.7312 22.5488 21.8651 22.0074 24.015 21.1156L24.2379 21.02L25.0501 22.9788L24.8272 23.0743C21.674 24.4917 18.8394 24.9694 15.6066 24.9694C12.8516 24.9694 10.2399 24.1891 8.31296 22.6284C6.52936 21.1793 5.35091 19.0613 5.17574 16.3062H0.00012207L1.16265 14.1404H5.30314ZM9.71436 14.1404H18.5368C19.4127 14.1404 19.9541 14.013 20.2726 13.8219C20.5593 13.6468 20.6867 13.376 20.6867 13.0257C20.6867 11.1465 18.6801 8.86927 15.3677 8.86927C13.6 8.86927 12.2624 9.53812 11.3069 10.5732C10.4469 11.5287 9.90545 12.8187 9.71436 14.1404ZM90.3584 6.6557C85.0872 6.6557 80.1824 10.4618 80.1824 15.6215C80.1824 18.7268 81.4086 21.0837 83.3355 22.6444C85.2624 24.205 87.8741 24.9853 90.6291 24.9853C93.8619 24.9853 96.6966 24.4917 99.8497 23.0903L100.073 22.9947L99.2605 21.0359L99.0375 21.1315C96.8877 22.0233 94.7537 22.5647 92.349 22.5647C90.3743 22.5647 88.5589 21.9914 87.1734 20.9085C85.8676 19.8734 84.9439 18.3446 84.721 16.3381H98.3687C98.9101 16.3381 99.372 16.2425 99.6745 15.94C99.993 15.6374 100.104 15.1915 100.104 14.6182C100.12 11.8154 97.5247 6.6557 90.3584 6.6557ZM93.5593 14.1404H84.7369C84.928 12.8027 85.4535 11.5287 86.3453 10.5732C87.2849 9.55405 88.6385 8.86927 90.4062 8.86927C93.7027 8.86927 95.7251 11.1465 95.7251 13.0257C95.7251 13.376 95.6137 13.6468 95.3111 13.8219C94.9926 14.029 94.4511 14.1564 93.5593 14.1404Z" fill="#FAFAFF"/>
</g>
<defs>
<clipPath id="clip0_3995_623">
<rect width="191.132" height="25" fill="white"/>
</clipPath>
</defs>
</svg>
