<svg width="117" height="40" viewBox="0 0 117 40" fill="none" xmlns="http://www.w3.org/2000/svg">
<g opacity="0.75" clip-path="url(#clip0_3995_593)">
<path fill-rule="evenodd" clip-rule="evenodd" d="M79.2757 34.0483C74.0295 34.5701 69.7787 30.3742 69.7787 24.6761C69.7787 18.9779 73.7881 14.4292 78.7337 14.5178C83.6794 14.6063 87.9316 18.7995 88.2307 23.89C88.5298 28.9806 84.5204 33.5265 79.2757 34.0483ZM50.3689 23.3682C50.668 18.279 54.9202 14.0845 59.8645 13.9973C64.8089 13.9101 68.8196 18.4588 68.8196 24.1556C68.8196 29.8524 64.5687 34.0496 59.3226 33.5278C54.0765 33.006 50.0697 28.4574 50.3689 23.3682ZM0 6.51107L6.12877 4.93897L6.11402 17.4004L16.4628 7.41918L21.7854 9.46479L14.2629 17.8095L19.2515 35.9826H13.8404L9.84842 22.059L6.0778 25.7505L6.12877 35.9826L0 35.7639V6.51107ZM50.1341 34.0094H44.7525L44.3997 25.725L43.8994 19.8337C43.7746 15.7036 40.0496 16.7485 38.9229 17.2502L39.2207 34.008L34.0778 33.8296L33.2421 1.39906L38.4802 0L38.5983 13.1201C44.2938 11.3011 47.3441 11.3199 48.11 19.6861L50.1341 34.0094ZM108.107 37.7559L109.627 34.1784H113.158L114.499 38.1046L111.329 40.0013L108.107 37.7559ZM88.1449 17.9946L87.2636 11.9074L91.8377 12.0671V3.51978L95.9262 5.21395L95.8538 12.8021L101.736 13.1871V16.8719L95.9946 17.1925L96.4762 28.4064C96.4762 28.4064 96.4883 29.2824 98.2844 29.2824C100.08 29.2824 101.736 28.2951 101.736 28.2951V34.0134C101.815 35.7572 99.3588 36.4869 99.3588 36.4869C91.509 37.6794 92.0858 32.4708 92.0858 32.4708L91.8296 17.9933L88.1449 17.9946ZM116.164 5.28639L111.983 32.1462L105.331 3.1992L116.164 5.28639ZM21.9182 17.1013L20.4842 13.3132C20.4842 13.3132 30.9604 8.63045 32.2066 17.0342L32.059 35.0892H24.1033C24.1033 35.0892 20.6157 35.2233 19.5426 31.3333C19.5426 31.3333 16.8598 21.4071 27.4661 19.5292L27.493 17.1147C27.493 17.1147 25.4782 14.939 21.9182 17.1013ZM75.1898 25.0436C75.4138 27.6794 77.0463 29.1174 78.1194 29.2435C80.8384 29.5641 83.1536 27.0771 82.9993 23.9101C82.8451 20.7431 81.5788 18.7646 79.0074 18.7109C76.4359 18.6573 74.8974 21.6003 75.1898 25.0436ZM27.45 31.6351L27.5949 23.5506C23.2609 22.9215 23.1791 28.782 23.1791 28.782C23.6083 32.5781 27.45 31.6351 27.45 31.6351ZM60.4802 28.723C61.5533 28.5969 63.1858 27.1603 63.4084 24.5245C63.7022 21.0812 62.1502 18.1368 59.5868 18.1905C57.0235 18.2441 55.7545 20.224 55.6003 23.391C55.446 26.558 57.7599 29.0449 60.4802 28.723Z" fill="#FAFAFF"/>
</g>
<defs>
<clipPath id="clip0_3995_593">
<rect width="116.164" height="40" fill="white"/>
</clipPath>
</defs>
</svg>
