<svg width="150" height="38" viewBox="0 0 150 38" fill="none" xmlns="http://www.w3.org/2000/svg">
<g opacity="0.75">
<path d="M19.7406 0.187256C30.0884 0.187256 38.4778 8.57577 38.4779 18.9236C38.4779 29.2715 30.0885 37.6609 19.7406 37.6609C9.39279 37.6607 1.00427 29.2714 1.00427 18.9236C1.00442 8.57586 9.39288 0.187406 19.7406 0.187256ZM15.3334 20.8474C14.7399 20.8474 14.1839 20.9528 13.6654 21.1638C13.159 21.3677 12.6952 21.6651 12.2992 22.0408C11.906 22.4147 11.598 22.8511 11.3773 23.3503C11.1554 23.858 11.0429 24.4067 11.0472 24.9607C11.0439 25.5193 11.1565 26.0726 11.3773 26.5857C11.5918 27.0843 11.9057 27.5342 12.2992 27.908C12.695 28.2842 13.1587 28.5824 13.6654 28.7859C14.1838 28.9968 14.7389 29.1013 15.3334 29.1013C15.9279 29.1013 16.4839 28.9969 17.0013 28.7859C17.5085 28.5825 17.9724 28.2843 18.3685 27.908C18.7621 27.5345 19.0749 27.0844 19.2885 26.5857C19.5091 26.0779 19.6195 25.536 19.6195 24.9607C19.6195 24.3853 19.5081 23.8496 19.2885 23.3503C19.0688 22.8511 18.7617 22.4147 18.3685 22.0408C17.9754 21.6669 17.5198 21.3749 17.0013 21.1638C16.4713 20.9507 15.9047 20.843 15.3334 20.8474ZM11.7377 9.13843L19.7347 18.9187L27.5863 28.9294L28.5922 28.0378L20.5385 18.2576L12.7435 8.27612L11.7377 9.13843ZM15.3334 21.9685C15.7361 21.9685 16.1055 22.0508 16.4408 22.2136C16.7762 22.3765 17.0731 22.5973 17.3324 22.8748C17.5901 23.1516 17.7951 23.4733 17.9369 23.824C18.0804 24.1786 18.1517 24.5569 18.1517 24.9597C18.1517 25.804 17.8788 26.5133 17.3324 27.0886V27.0896C16.786 27.6649 16.1197 27.9519 15.3334 27.9519C14.9305 27.9519 14.5613 27.8706 14.226 27.7078C13.8908 27.5449 13.5945 27.3281 13.3353 27.0603C13.0761 26.7924 12.8744 26.4754 12.7308 26.1111C12.5873 25.7469 12.515 25.3635 12.515 24.9607C12.5135 24.5657 12.5918 24.1745 12.7445 23.8103C12.8977 23.446 13.1045 23.125 13.3627 22.8464C13.6176 22.5712 13.9261 22.3512 14.2689 22.199C14.6139 22.0458 14.9691 21.9685 15.3334 21.9685ZM24.9974 8.10522C24.404 8.10523 23.8439 8.21467 23.3158 8.4353C22.8081 8.64345 22.3439 8.9454 21.9486 9.32593C21.5651 9.7009 21.257 10.1373 21.0277 10.6355C20.7985 11.1337 20.683 11.6706 20.683 12.2458C20.6788 12.8016 20.7964 13.3518 21.0277 13.8572C21.2581 14.3554 21.565 14.7918 21.9486 15.1658C22.3418 15.5457 22.8067 15.8435 23.3158 16.0427C23.8509 16.2552 24.4217 16.3629 24.9974 16.3591C25.5688 16.3638 26.1354 16.2561 26.6654 16.0427C27.1722 15.8389 27.6362 15.5417 28.0326 15.1658C28.4258 14.7918 28.7328 14.3565 28.9535 13.8572C29.1741 13.358 29.2845 12.82 29.2845 12.2458C29.2845 11.6716 29.1742 11.1337 28.9535 10.6355C28.7328 10.1373 28.4258 9.70092 28.0326 9.32593C27.6341 8.9494 27.1707 8.64804 26.6654 8.4353C26.1479 8.21569 25.591 8.10522 24.9974 8.10522ZM24.9965 9.25464C25.3744 9.25337 25.7478 9.33673 26.0892 9.49878C26.4352 9.66161 26.7362 9.8814 26.9955 10.1599C27.2547 10.4385 27.4564 10.7545 27.6 11.1091C27.7454 11.4703 27.8193 11.8565 27.8168 12.2458C27.8168 12.6487 27.7406 13.034 27.5863 13.3972C27.4393 13.7524 27.2299 14.0786 26.9681 14.3601C26.7099 14.6376 26.4119 14.8544 26.0765 15.0076L26.0756 15.0056C25.7369 15.1599 25.3685 15.2386 24.9965 15.2361C24.609 15.2395 24.2254 15.1562 23.8744 14.9919C23.5327 14.8319 23.2249 14.6073 22.9681 14.3308C22.7089 14.0523 22.5072 13.7341 22.3636 13.3806C22.2201 13.0271 22.1488 12.6477 22.1488 12.2449C22.1488 11.8238 22.225 11.4304 22.3793 11.0662C22.5335 10.702 22.7443 10.3858 23.0121 10.1169C23.2773 9.8516 23.5892 9.63744 23.932 9.48511C24.2664 9.3339 24.6295 9.25527 24.9965 9.25464Z" fill="#FAFAFF"/>
<path fill-rule="evenodd" clip-rule="evenodd" d="M51.6149 16.0433V29.1308H47.6453V8.7083H50.7235L61.366 22.1119V8.73722H65.3356V29.1308H62.1149L51.6149 16.0433ZM72.4113 18.9201C72.4093 19.7881 72.5401 20.6513 72.7992 21.4797C73.0401 22.2696 73.42 23.0101 73.921 23.6665C74.4061 24.2958 75.0188 24.8154 75.7188 25.1912C76.4281 25.5747 77.2338 25.7665 78.1349 25.7665C79.0553 25.7665 79.8653 25.5704 80.5649 25.1772C81.2645 24.784 81.8549 24.2612 82.3338 23.6097C82.8128 22.9583 83.1781 22.2244 83.4267 21.409C83.6743 20.6029 83.8003 19.7644 83.8006 18.9212C83.8027 18.0516 83.6667 17.1873 83.3978 16.3604C83.1288 15.5365 82.7506 14.8069 82.261 14.1747C81.7713 13.5426 81.1778 13.039 80.4781 12.664C79.7785 12.289 78.9867 12.1026 78.1049 12.1026C77.1846 12.1026 76.3745 12.2997 75.6749 12.6929C74.9753 13.0862 74.3806 13.6037 73.891 14.2454C73.4013 14.8872 73.0328 15.6169 72.7842 16.4322C72.5362 17.2382 72.4112 18.0768 72.4113 18.9201ZM78.0771 29.2754C76.6392 29.2754 75.3246 28.984 74.1363 28.3979C72.9712 27.8314 71.93 27.0393 71.0731 26.0676C70.2203 25.1001 69.5624 23.9922 69.1028 22.7451C68.6431 21.4979 68.4128 20.224 68.4128 18.9201C68.4128 17.5583 68.6571 16.2544 69.1456 15.0083C69.6342 13.7622 70.3156 12.6597 71.1878 11.7008C72.0587 10.7434 73.1094 9.96659 74.2799 9.41437C75.4692 8.84865 76.7624 8.5658 78.1638 8.5658C79.6017 8.5658 80.9153 8.86794 82.1045 9.47222C83.2666 10.0555 84.3024 10.8619 85.1528 11.8454C86.0007 12.8305 86.6636 13.9609 87.1092 15.1819C87.5635 16.3964 87.7972 17.6823 87.7992 18.979C87.8045 20.313 87.5558 21.6359 87.0663 22.8769C86.5953 24.084 85.908 25.1951 85.0381 26.1554C84.1711 27.1075 83.1251 27.8797 81.9599 28.4279C80.7706 28.9937 79.4763 29.2754 78.0771 29.2754Z" fill="#FAFAFF"/>
<path fill-rule="evenodd" clip-rule="evenodd" d="M104.252 23.4073C104.252 22.9466 104.171 22.5009 104.008 22.0702C103.845 21.6394 103.625 21.2602 103.346 20.9334C103.071 20.6101 102.734 20.3458 102.354 20.1566C101.96 19.9626 101.527 19.8639 101.088 19.8684H93.7824V26.8873H100.887C101.344 26.8922 101.797 26.7937 102.21 26.5991C102.613 26.4084 102.968 26.1534 103.274 25.8373C103.583 25.5176 103.827 25.1415 103.993 24.7294C104.166 24.3084 104.252 23.8659 104.252 23.4062V23.4073ZM93.7824 10.9519V17.7694H100.283C100.743 17.7694 101.165 17.6784 101.548 17.4962C101.932 17.3141 102.263 17.0698 102.54 16.7623C102.818 16.4548 103.038 16.0959 103.201 15.6834C103.364 15.2709 103.446 14.8348 103.446 14.3741C103.449 13.9137 103.371 13.4564 103.215 13.023C103.075 12.6251 102.866 12.2552 102.597 11.9302C102.338 11.623 102.014 11.3771 101.648 11.2102C101.274 11.0379 100.866 10.9497 100.454 10.9519H93.7824ZM106.87 23.8669C106.879 24.6131 106.717 25.3513 106.395 26.0248C106.087 26.6663 105.646 27.2349 105.101 27.693C104.555 28.1537 103.921 28.5084 103.202 28.7569C102.483 29.0055 101.711 29.1309 100.887 29.1309H91.1938V8.70837H101.348C102.057 8.70837 102.7 8.86159 103.275 9.16909C103.851 9.47659 104.339 9.87409 104.742 10.3627C105.145 10.8512 105.457 11.4073 105.677 12.0309C105.898 12.6544 106.008 13.2823 106.008 13.9144C106.008 14.9312 105.755 15.8709 105.247 16.7334C104.739 17.5959 104.015 18.2387 103.075 18.6609C104.245 19.0059 105.17 19.6444 105.851 20.5734C106.532 21.5023 106.872 22.6016 106.872 23.8669H106.87Z" fill="#FAFAFF"/>
<path d="M113.112 19.4944H119.296C119.833 19.4944 120.317 19.3787 120.749 19.1494C121.181 18.9202 121.549 18.6084 121.857 18.2152C122.164 17.8219 122.403 17.3666 122.577 16.848C122.75 16.3294 122.835 15.7937 122.835 15.2377C122.839 14.6819 122.736 14.1307 122.533 13.6134C122.332 13.1055 122.063 12.6544 121.728 12.2612C121.394 11.868 120.999 11.5616 120.549 11.3409C120.106 11.1222 119.619 11.0089 119.125 11.0098H113.113V19.4955L113.112 19.4944ZM110.523 29.1298V8.70837H119.267C120.168 8.70837 120.998 8.8948 121.755 9.2698C122.5 9.63409 123.165 10.1425 123.712 10.7655C124.256 11.3864 124.689 12.0969 124.992 12.8655C125.294 13.6203 125.45 14.4257 125.452 15.2387C125.453 15.9353 125.352 16.6282 125.149 17.2948C124.948 17.9569 124.661 18.5559 124.287 19.0927C123.917 19.6257 123.46 20.0926 122.935 20.4737C122.407 20.8573 121.817 21.1359 121.166 21.3073L126.114 29.1309H123.18L118.52 21.7959H113.113V29.1309H110.524L110.523 29.1298Z" fill="#FAFAFF"/>
<path fill-rule="evenodd" clip-rule="evenodd" d="M130.974 18.9202C130.974 19.9552 131.141 20.9581 131.477 21.9256C131.795 22.8617 132.277 23.7336 132.901 24.5002C133.508 25.2423 134.262 25.8496 135.117 26.2831C135.981 26.7234 136.939 26.9452 137.993 26.9452C139.086 26.9452 140.064 26.7106 140.926 26.2402C141.789 25.7698 142.523 25.157 143.127 24.3995C143.737 23.6304 144.204 22.7585 144.507 21.8248C144.823 20.8659 144.982 19.8973 144.982 18.9202C144.984 17.8969 144.813 16.8806 144.478 15.9138C144.143 14.9441 143.663 14.0923 143.04 13.3541C142.426 12.6238 141.674 12.0225 140.826 11.5852C139.973 11.1438 139.029 10.9231 137.993 10.9231C136.9 10.9231 135.922 11.1534 135.059 11.6141C134.21 12.063 133.462 12.6798 132.859 13.427C132.246 14.1909 131.773 15.0576 131.464 15.9866C131.14 16.9309 130.974 17.9221 130.974 18.9202ZM137.964 29.2756C136.526 29.2756 135.217 28.9841 134.037 28.3981C132.857 27.812 131.846 27.0363 131.003 26.0677C130.16 25.0991 129.507 23.9923 129.046 22.7452C128.586 21.4981 128.355 20.2241 128.355 18.9202C128.355 17.5584 128.6 16.2545 129.089 15.0084C129.56 13.7924 130.247 12.6718 131.117 11.7009C131.981 10.742 133.001 9.9802 134.181 9.41449C135.36 8.84877 136.64 8.56592 138.021 8.56592C139.459 8.56592 140.762 8.86806 141.932 9.47235C143.083 10.0612 144.109 10.8671 144.953 11.8456C145.799 12.8269 146.462 13.9523 146.909 15.1681C147.364 16.3772 147.598 17.6583 147.599 18.9502C147.604 20.2887 147.355 21.6159 146.866 22.862C146.377 24.1081 145.706 25.2063 144.853 26.1556C144 27.1048 142.984 27.8623 141.804 28.4281C140.624 28.9938 139.345 29.2756 137.964 29.2756ZM151.224 29.1309V8.73735H153.812V20.012L164.34 8.70842H167.13L158.932 17.7116L167.59 29.1309H164.771L157.35 19.2073L153.812 22.8888V29.1309H151.224ZM183.756 26.8295V29.1309H169.891V8.70842H183.498V11.0098H172.481V17.6259H182.06V19.7827H172.481V26.8306L183.756 26.8295Z" fill="#FAFAFF"/>
</g>
</svg>
