<svg width="142" height="30" viewBox="0 0 142 30" fill="none" xmlns="http://www.w3.org/2000/svg">
<g opacity="0.75" clip-path="url(#clip0_3995_596)">
<path fill-rule="evenodd" clip-rule="evenodd" d="M45.1544 11.0029C42.2758 11.0029 39.9692 8.71607 39.9692 5.91615C39.9692 3.11623 42.2758 0.908081 45.1544 0.908081C48.033 0.908081 50.3199 3.13591 50.3199 5.91615C50.3199 8.6964 48.0133 11.0029 45.1544 11.0029Z" fill="#FAFAFF"/>
<path fill-rule="evenodd" clip-rule="evenodd" d="M4.59502 29.9515C4.59502 29.9515 1.83445 29.9515 0.0394733 28.6105V25.2779C1.04442 27.9007 3.52953 27.9007 3.52953 27.9007C5.99346 27.9007 7.11797 26.1663 7.0983 24.8647C7.0983 23.8991 6.58523 22.9517 5.1656 22.1238C4.2 21.6107 3.3903 21.0795 2.72134 20.5468C0.92788 19.2043 0.0409867 17.7847 0.000123056 15.5569C-0.0589023 13.0324 2.56394 11.1012 5.46224 11.1012C5.46224 11.1012 8.22281 11.1012 10.0375 12.5799V15.6946C9.01284 13.3684 6.62609 13.1111 6.62609 13.1111C4.14098 12.8947 3.8852 14.393 3.92455 15.0241C3.92455 15.3798 4.41794 16.4044 5.30483 16.9371C6.88187 17.9618 8.91295 19.0272 10.0178 20.5452C10.6882 21.4518 11.1226 22.5567 11.1423 23.7992C11.221 27.368 7.908 29.9515 4.59653 29.9515H4.59502Z" fill="#FAFAFF"/>
<path fill-rule="evenodd" clip-rule="evenodd" d="M38.4513 26.5794C38.0367 26.9744 37.3859 27.9007 35.435 27.9007C34.3302 27.9007 33.5417 26.7565 33.5417 25.5745C33.5417 21.0598 37.4661 20.132 38.4513 18.9303V26.5809V26.5794ZM44.6823 29.6745C42.8283 28.4319 42.8283 26.0467 42.8283 26.0467V15.7929C42.8283 13.329 40.0874 11.0209 37.2088 11.0209C37.2088 11.0209 34.4482 11.0209 32.6941 12.6963V15.97C33.976 13.1307 36.2235 13.1307 36.2235 13.1307C38.6284 13.1307 38.8464 14.6487 38.807 15.2602C39.0628 16.0684 38.4513 17.1535 38.4513 17.1535C37.3268 19.1059 28.4549 19.8551 29.7761 26.5779C30.3089 29.2401 32.0827 29.9893 34.3317 29.9893C36.5807 29.9893 37.9988 28.5696 38.5316 27.5041C38.5316 27.5041 38.8464 29.5352 39.8922 29.6729H44.6838L44.6823 29.6745Z" fill="#FAFAFF"/>
<path fill-rule="evenodd" clip-rule="evenodd" d="M54.4819 26.5794C54.0475 26.9744 53.4164 27.9007 51.4655 27.9007C50.3607 27.9007 49.5722 26.7565 49.5722 25.5745C49.5722 21.0598 53.4966 20.132 54.4819 18.9303V26.5809V26.5794ZM60.7128 29.6745C58.8588 28.4319 58.8588 26.0467 58.8588 26.0467V15.7929C58.8588 13.329 56.1179 11.0209 53.2393 11.0209C53.2393 11.0209 50.4591 11.0209 48.7246 12.6963V15.97C50.0066 13.1307 52.2344 13.1307 52.2344 13.1307C54.659 13.1307 54.8769 14.6487 54.8375 15.2602C55.0933 16.0684 54.4819 17.1535 54.4819 17.1535C53.3377 19.1059 44.4854 19.8551 45.8067 26.5779C46.3394 29.2401 48.1132 29.9893 50.3622 29.9893C52.6112 29.9893 54.0294 28.5696 54.5621 27.5041C54.5621 27.5041 54.8769 29.5352 55.903 29.6729H60.7144L60.7128 29.6745Z" fill="#FAFAFF"/>
<path fill-rule="evenodd" clip-rule="evenodd" d="M27.3304 25.968V15.8732C27.3304 12.0683 24.6289 11.0225 22.3027 11.0225C19.5028 11.0225 18.0831 13.1913 17.6488 14.2371V4.14073C17.6488 0.0785784 15.5193 -0.00012207 14.4735 -0.00012207H11.5555C13.231 0.827746 13.231 3.70637 13.231 3.70637V25.5336C13.231 29.5958 15.3801 29.6745 16.4062 29.6745H19.3242C17.6488 28.8466 17.6488 25.968 17.6488 25.968V15.8732C18.457 14.1175 20.2716 14.1175 20.2716 14.1175C21.7306 14.1175 22.9141 15.3404 22.9141 16.7207C22.8945 20.4075 22.8945 25.5351 22.8945 25.5351C22.8945 29.5973 25.0436 29.676 26.0894 29.676H29.0074C27.332 28.8481 27.332 25.9695 27.332 25.9695L27.3304 25.968Z" fill="#FAFAFF"/>
<path fill-rule="evenodd" clip-rule="evenodd" d="M84.7679 25.9088V15.2025C84.7679 11.0616 82.6188 11.0813 81.5926 11.0813H78.6747C80.3501 11.8108 80.3501 14.7484 80.3501 14.7484V25.6923C80.4288 29.5971 82.4992 29.6758 83.5057 29.6758H86.4237C84.7679 28.8283 84.7679 25.9103 84.7679 25.9103V25.9088Z" fill="#FAFAFF"/>
<path fill-rule="evenodd" clip-rule="evenodd" d="M81.7108 9.9964C82.9533 9.9964 83.9386 8.99146 83.9386 7.78825C83.9386 6.58504 82.9533 5.61945 81.7108 5.61945C80.4682 5.61945 79.4633 6.58504 79.4633 7.78825C79.4633 8.99146 80.4485 9.9964 81.7108 9.9964Z" fill="#FAFAFF"/>
<path fill-rule="evenodd" clip-rule="evenodd" d="M112.905 22.4778C112.905 25.5532 111.682 28.0383 110.203 28.0383C108.725 28.0383 107.502 25.5532 107.502 22.4778C107.502 19.4024 108.705 16.8976 110.203 16.8976C111.702 16.8976 112.905 19.4024 112.905 22.4778ZM116.513 22.6155C116.513 18.1992 113.733 15.6551 110.243 15.6551C106.753 15.6551 103.973 18.7698 103.973 22.6155C103.973 27.2891 106.792 29.6153 110.243 29.6153C113.694 29.6153 116.513 26.4809 116.513 22.6155Z" fill="#FAFAFF"/>
<path fill-rule="evenodd" clip-rule="evenodd" d="M129.409 26.9139L129.39 19.5387C129.449 19.2042 130.001 18.0994 131.558 18.0994C132.445 18.0994 133.432 19.0257 133.432 20.0715V26.5975C133.432 29.6729 135.048 29.7319 135.817 29.7319H138.025C136.763 29.1008 136.763 26.9123 136.763 26.9123L136.744 19.5372C136.744 16.5012 134.575 15.5144 133.096 15.5144C133.096 15.5144 130.276 15.5734 129.291 18.4914C128.857 16.2636 127.044 15.5144 125.742 15.5144C125.742 15.5144 122.942 15.5144 121.957 18.4324C121.8 15.7505 119.532 15.7505 119.532 15.7505H117.324C118.705 16.3619 118.705 18.6094 118.705 18.6094V26.5945C118.705 29.6699 120.321 29.7289 121.109 29.7289H123.318C122.036 29.0978 122.036 26.9093 122.036 26.9093L122.055 19.5342C122.095 19.1997 122.647 18.0949 124.204 18.0949C125.091 18.0949 126.078 19.0211 126.078 20.0669V26.593C126.078 29.6684 127.695 29.7274 128.483 29.7274H130.691C129.409 29.0963 129.409 26.9078 129.409 26.9078V26.9139Z" fill="#FAFAFF"/>
<path fill-rule="evenodd" clip-rule="evenodd" d="M90.545 29.6351C91.7875 29.6351 92.7925 28.6301 92.7925 27.4269C92.7925 26.2237 91.7875 25.2581 90.545 25.2581C89.3024 25.2581 88.3171 26.204 88.3171 27.4269C88.3171 28.6498 89.3024 29.6351 90.545 29.6351Z" fill="#FAFAFF"/>
<path fill-rule="evenodd" clip-rule="evenodd" d="M71.8914 26.5795C71.1422 27.4074 70.5307 27.6041 70.2553 27.7237C65.7406 28.9662 66.0161 23.0894 66.0161 21.1779C66.0161 17.6879 66.0554 12.7978 68.7963 12.7978C68.7963 12.7978 70.9258 12.7978 71.8914 15.5387V25.7531C71.8914 26.7974 71.8914 26.581 71.8914 26.581V26.5795ZM76.3077 19.6584V15.4388V4.18015C76.3077 0.0786449 74.1782 0.117995 73.1324 0.117995H70.2144C71.8898 0.827812 71.8898 3.70643 71.8898 3.70643V12.48C70.9242 11.0997 68.8735 11.0997 68.8735 11.0997C64.5949 11.0997 61.2229 15.1619 61.2229 21.1749C61.2229 25.6109 63.4311 30.9549 68.9325 29.8501C68.9325 29.8501 70.8652 29.4748 71.9882 27.4452C72.1063 28.4501 72.4423 29.3582 73.2504 29.673H78.1208C76.5634 28.6681 76.2865 26.6764 76.3061 26.0059V19.6569L76.3077 19.6584Z" fill="#FAFAFF"/>
<path fill-rule="evenodd" clip-rule="evenodd" d="M102.889 26.3828C102.435 27.5073 101.074 28.1172 100.227 27.9992C98.5906 27.9008 97.8021 25.732 97.7824 22.4584C97.7824 19.4027 98.1774 16.9766 99.8528 16.9766C100.681 16.9372 102.12 17.4503 102.889 18.5339V16.5029C102.356 16.1881 101.213 15.734 100.404 15.6553C96.0858 15.2603 94.1334 18.77 94.1334 22.6158C94.1334 27.2697 96.9137 29.891 100.404 29.5959C101.173 29.5172 102.317 29.1812 102.889 28.3533V26.3813V26.3828Z" fill="#FAFAFF"/>
<path d="M139.727 13.1263H139.366V13.8179H139.727C139.929 13.8179 140.073 13.7922 140.155 13.7422C140.237 13.6908 140.278 13.6045 140.278 13.4834C140.278 13.3624 140.234 13.267 140.147 13.211C140.061 13.155 139.92 13.1278 139.727 13.1278V13.1263ZM139.781 12.9295C140.051 12.9295 140.252 12.9734 140.382 13.0597C140.512 13.1459 140.577 13.2806 140.577 13.4607C140.577 13.5954 140.536 13.7089 140.455 13.7998C140.371 13.8921 140.262 13.9466 140.123 13.9662L140.551 14.8531H140.22L139.814 14.0071H139.365V14.8531H139.076V12.928H139.78L139.781 12.9295ZM141.22 13.9254C141.22 14.1312 141.184 14.3204 141.113 14.496C141.04 14.6715 140.936 14.8274 140.797 14.9621C140.65 15.1059 140.486 15.2148 140.303 15.2905C140.12 15.3662 139.929 15.404 139.731 15.404C139.533 15.404 139.347 15.3662 139.168 15.2905C138.988 15.2164 138.828 15.1074 138.685 14.9666C138.543 14.8244 138.436 14.6624 138.36 14.4838C138.284 14.3053 138.246 14.1176 138.246 13.9208C138.246 13.7241 138.284 13.5364 138.362 13.3548C138.439 13.1732 138.549 13.0097 138.693 12.8614C138.834 12.7222 138.993 12.6147 139.168 12.5421C139.345 12.4694 139.533 12.4331 139.731 12.4331C139.929 12.4331 140.128 12.4709 140.309 12.5466C140.491 12.6208 140.653 12.7297 140.797 12.8705C140.934 13.0082 141.039 13.1671 141.111 13.3487C141.184 13.5288 141.222 13.7211 141.222 13.9254H141.22ZM139.731 12.2469C139.961 12.2469 140.179 12.2893 140.382 12.3726C140.585 12.4573 140.765 12.5784 140.921 12.7373C141.075 12.8917 141.195 13.0718 141.278 13.2746C141.361 13.4774 141.402 13.6923 141.402 13.9178C141.402 14.1433 141.361 14.3597 141.279 14.5595C141.198 14.7593 141.078 14.9349 140.921 15.0907C140.757 15.2512 140.574 15.3753 140.368 15.4615C140.163 15.5478 139.951 15.5902 139.73 15.5902C139.509 15.5902 139.294 15.5478 139.093 15.4631C138.891 15.3783 138.711 15.2557 138.554 15.0953C138.395 14.9379 138.272 14.7578 138.189 14.555C138.106 14.3522 138.063 14.1403 138.063 13.9178C138.063 13.6953 138.106 13.4865 138.192 13.2806C138.278 13.0748 138.401 12.8902 138.563 12.7267C138.716 12.5708 138.893 12.4513 139.091 12.368C139.291 12.2863 139.504 12.2454 139.73 12.2454L139.731 12.2469Z" fill="#FAFAFF"/>
</g>
<defs>
<clipPath id="clip0_3995_596">
<rect width="141.403" height="30" fill="white"/>
</clipPath>
</defs>
</svg>
