<svg width="64" height="64" viewBox="0 0 64 64" fill="none" xmlns="http://www.w3.org/2000/svg">
<rect width="64" height="64" rx="8" fill="url(#paint0_linear_3654_30308)" fill-opacity="0.15"/>
<rect x="0.5" y="0.5" width="63" height="63" rx="7.5" stroke="#FAFAFF" stroke-opacity="0.1"/>
<path opacity="0.6" fill-rule="evenodd" clip-rule="evenodd" d="M26.3604 16.0479C26.6289 16.1874 27.0038 16.5313 27.0039 16.7822V18.501H29.003V16.7822C29.0031 16.4963 29.4912 16.0872 29.753 16.001H30.253C30.514 16.0868 31.0028 16.4955 31.003 16.7822V18.501H33.003V16.7822C33.0031 16.4962 33.4912 16.0869 33.753 16.001H34.252C34.513 16.0867 35.0019 16.4955 35.002 16.7822V18.501H37.002V16.7822C37.0021 16.4962 37.4902 16.087 37.752 16.001H38.252C38.5131 16.0869 39.0019 16.4956 39.002 16.7822V18.501H41.0323C43.0313 18.501 45.5 20.9703 45.5 22.9688V25H47.2188C47.5049 25 47.9143 25.4883 48 25.75V26.249C47.936 26.5008 47.4666 26.999 47.2188 26.999H45.5V28.999H47.2188C47.5048 28.999 47.9141 29.4872 48 29.749V30.249C47.9358 30.5008 47.4666 30.999 47.2188 30.999H45.5V32.999H47.2188C47.5049 32.999 47.9143 33.4873 48 33.749V34.248C47.936 34.4998 47.4666 34.998 47.2188 34.998H45.5V36.998H47.2188C47.5048 36.998 47.9141 37.4863 48 37.748V38.248C47.9356 38.4999 47.4665 38.998 47.2188 38.998H45.5V41.0293C45.4995 43.0283 43.0305 45.4971 41.0323 45.4971H39.002V47.2148C39.0018 47.6148 38.3545 48.0112 37.9707 48.002C37.587 47.9924 37.0022 47.5966 37.002 47.2148V45.4971H35.002V47.2148C35.0018 47.6149 34.3545 48.0113 33.9707 48.002C33.587 47.9921 33.0031 47.5965 33.003 47.2148V45.4971H31.003V47.2148C31.0028 47.6149 30.3555 48.0113 29.9717 48.002C29.588 47.9923 29.0031 47.5966 29.003 47.2148V45.4971H27.0039V47.2148C27.0038 47.6148 26.3565 48.0112 25.9727 48.002C25.589 47.9924 25.0041 47.5966 25.0039 47.2148V45.4971H22.9727C20.9746 45.4967 18.5054 43.0281 18.5049 41.0293V38.998H16.7872C16.3761 38.9976 15.9918 38.3611 16.001 37.9668C16.0098 37.5969 16.406 36.9985 16.7872 36.998H18.5059V34.998H16.7872C16.376 34.9976 15.9917 34.3611 16.001 33.9668C16.0101 33.5969 16.4061 32.9995 16.7872 32.999H18.5059V30.999H16.7872C16.3761 30.9973 15.9919 30.3611 16.001 29.9668C16.0098 29.5969 16.406 28.9985 16.7872 28.998H18.5059V26.998H16.7872C16.3761 26.9982 15.9918 26.3621 16.001 25.9678C16.0098 25.5979 16.406 24.9995 16.7872 24.999H18.5059V22.9678C18.5062 20.9694 20.9748 18.5002 22.9737 18.5H25.0049V16.7822C25.005 16.4962 25.4932 16.0869 25.7549 16.001H26.2539L26.3604 16.0479ZM29.6387 28.1543C29.3912 28.1544 29.169 28.3071 29.0801 28.5381L27.877 31.668C27.6975 32.1346 27.6406 32.2694 27.5635 32.3779C27.486 32.4869 27.3903 32.5826 27.2813 32.6602C27.1727 32.7373 27.0374 32.794 26.5704 32.9736L23.4414 34.1768C23.2105 34.2656 23.0578 34.4879 23.0577 34.7354C23.0577 34.9829 23.2104 35.2051 23.4414 35.2939L26.5704 36.498C27.0377 36.6778 27.1726 36.7343 27.2813 36.8115C27.3903 36.889 27.486 36.9838 27.5635 37.0928C27.6408 37.2014 27.6973 37.3364 27.877 37.8037L29.0801 40.9336C29.169 41.1646 29.3912 41.3173 29.6387 41.3174C29.8862 41.3174 30.1084 41.1646 30.1973 40.9336L31.4014 37.8037C31.5811 37.3365 31.6376 37.2014 31.7149 37.0928C31.7923 36.984 31.8873 36.8889 31.9961 36.8115C32.1048 36.7343 32.2398 36.6778 32.7071 36.498L35.837 35.2939C36.0679 35.205 36.2207 34.9828 36.2207 34.7354C36.2206 34.4879 36.0679 34.2656 35.837 34.1768L32.7071 32.9736C32.2398 32.7939 32.1048 32.7374 31.9961 32.6602C31.8871 32.5826 31.7924 32.4869 31.7149 32.3779C31.6377 32.2693 31.581 32.1349 31.4014 31.668L30.1973 28.5381C30.1084 28.307 29.8863 28.1543 29.6387 28.1543ZM37.2139 22.5605C37.0745 22.5607 36.9496 22.6463 36.8995 22.7764L36.2207 24.542C36.1196 24.8051 36.0875 24.8812 36.044 24.9424C36.0003 25.0039 35.9463 25.0578 35.8848 25.1016C35.8236 25.1451 35.7477 25.1771 35.4844 25.2783L33.7188 25.957C33.5885 26.0072 33.502 26.1328 33.502 26.2725C33.5021 26.412 33.5886 26.5368 33.7188 26.5869L35.4844 27.2656C35.7475 27.3668 35.8236 27.3989 35.8848 27.4424C35.9463 27.4861 36.0003 27.5401 36.044 27.6016C36.0875 27.6628 36.1194 27.7394 36.2207 28.0029L36.8995 29.7676C36.9495 29.8978 37.0745 29.9842 37.2139 29.9844C37.3535 29.9844 37.4792 29.8979 37.5293 29.7676L38.208 28.0029C38.3094 27.7394 38.3412 27.6628 38.3848 27.6016C38.4285 27.5401 38.4825 27.4861 38.544 27.4424C38.6052 27.3989 38.6813 27.3668 38.9444 27.2656L40.71 26.5869C40.8402 26.5368 40.9257 26.4119 40.9258 26.2725C40.9258 26.1328 40.8403 26.0072 40.71 25.957L38.9444 25.2783C38.6812 25.1771 38.6052 25.1451 38.544 25.1016C38.4825 25.0578 38.4285 25.0039 38.3848 24.9424C38.3413 24.8812 38.3093 24.8051 38.208 24.542L37.5293 22.7764C37.4792 22.6461 37.3535 22.5605 37.2139 22.5605Z" fill="url(#paint1_linear_3654_30308)"/>
<defs>
<linearGradient id="paint0_linear_3654_30308" x1="32" y1="0" x2="32" y2="64" gradientUnits="userSpaceOnUse">
<stop stop-color="#0A0914"/>
<stop offset="1" stop-color="#FAFAFF"/>
</linearGradient>
<linearGradient id="paint1_linear_3654_30308" x1="45.6007" y1="7.67165" x2="45.6007" y2="38.8319" gradientUnits="userSpaceOnUse">
<stop stop-color="#FAFAFF"/>
<stop offset="0.285" stop-color="#B1B1B4"/>
<stop offset="1" stop-color="#646465"/>
</linearGradient>
</defs>
</svg>
