<svg width="36" height="36" viewBox="0 0 36 36" fill="none" xmlns="http://www.w3.org/2000/svg">
<g opacity="0.6">
<path fill-rule="evenodd" clip-rule="evenodd" d="M12.8265 2.06934C13.057 2.04192 13.5934 2.0419 13.8236 2.06934C15.5084 2.27172 16.8185 3.8103 16.9398 5.45996C17.1109 7.78442 16.8462 9.83214 16.8246 12.1592C16.8239 12.2234 16.8181 12.2877 16.8011 12.3496C16.6441 12.923 16.055 13.9316 15.7738 14.3945C15.676 14.5554 15.5332 14.6972 15.3461 14.7178C14.6534 14.7932 13.8552 14.0652 13.4603 13.4209C13.0367 12.7291 13.3398 11.3414 12.1088 11.4697C10.984 11.587 11.2699 13.0533 11.5502 13.7744C11.904 14.6845 12.6129 15.3789 13.4603 15.7734C13.4693 15.7776 13.4808 15.7823 13.4925 15.7871C13.9937 15.9924 14.1283 16.6489 13.6898 16.9668L10.8275 18.6533C10.4958 18.8488 10.5001 19.3302 10.8353 19.5195L11.4935 19.8906C12.1216 20.2457 12.1784 21.1541 11.8002 21.7686C11.4717 22.302 11.273 22.9085 11.267 23.5215C11.2597 24.2797 11.9508 24.8288 12.6595 24.4736C13.2492 24.1773 13.1081 23.6499 13.2435 23.126C13.3583 22.6814 13.7184 22.2087 14.0668 21.9434C14.1827 21.8551 14.3302 21.8142 14.4691 21.8584C14.625 21.9082 14.8455 22.0256 15.0599 22.2979C15.6759 23.0808 16.628 25.7758 16.8578 26.4414C16.8918 26.5401 16.9098 26.6446 16.9115 26.749C16.9377 28.3753 17.0504 28.7791 16.9398 30.4316C16.6494 34.7719 10.899 35.1247 9.91637 31.3447C9.70918 30.5476 9.67071 29.549 10.5834 29.1846C10.9165 29.0518 11.1892 29.1389 11.5111 28.9912C12.3105 28.6244 12.1457 27.3857 11.2845 27.2383C10.176 27.0487 8.92626 27.8337 8.33141 28.8291C8.11618 29.1893 7.77255 29.5041 7.35582 29.4561C5.45785 29.236 3.92809 27.5067 4.17418 25.5176C4.28777 24.5988 5.13018 23.7076 6.03258 23.5146C6.38196 23.4399 6.8031 23.507 7.12633 23.3008C7.69928 22.9354 7.63865 22.0391 7.07164 21.7139C7.00067 21.6732 6.9196 21.654 6.83825 21.6455C6.2136 21.5809 5.57396 21.6485 4.9525 21.5508C0.786283 20.897 0.99667 14.8024 5.19664 14.46C5.98807 14.3952 7.3396 14.7695 7.51696 13.665C7.71882 12.4042 6.24091 12.6813 5.515 12.334C3.19758 11.2242 4.14717 7.93723 6.09703 6.9541C6.41762 6.79246 7.83793 6.38154 8.06383 6.6123C8.12822 6.6795 8.24492 7.0683 8.33141 7.21582C8.92501 8.22937 10.1007 8.93645 11.3021 8.79492C11.8762 8.72682 12.189 7.97836 11.9408 7.46875C11.5581 6.68258 10.3871 7.19645 9.93004 6.24219C9.13174 4.57409 11.1844 2.26584 12.8265 2.06934ZM25.0101 24.1201C25.2166 24.5331 25.3195 24.74 25.4574 24.9189C25.5797 25.0776 25.7225 25.2194 25.8812 25.3418C26.0602 25.4797 26.2671 25.5835 26.68 25.79L27.8998 26.4004L26.68 27.0098C26.2671 27.2163 26.0602 27.3201 25.8812 27.458C25.7225 27.5804 25.5797 27.7222 25.4574 27.8809C25.3195 28.0598 25.2166 28.2667 25.0101 28.6797L24.3998 29.8994L23.7894 28.6797C23.583 28.2668 23.4801 28.0598 23.3422 27.8809C23.2198 27.7222 23.077 27.5803 22.9183 27.458C22.7394 27.3201 22.5334 27.2162 22.1205 27.0098L20.8998 26.4004L22.1205 25.79C22.5334 25.5836 22.7394 25.4797 22.9183 25.3418C23.077 25.2195 23.2198 25.0776 23.3422 24.9189C23.4801 24.74 23.583 24.533 23.7894 24.1201L24.3998 22.9004L25.0101 24.1201ZM18.3558 15.8262C18.6478 16.41 18.7936 16.7021 18.9886 16.9551C19.1617 17.1796 19.3627 17.3816 19.5873 17.5547C19.8403 17.7497 20.1331 17.8955 20.7172 18.1875L22.4427 19.0508L20.7172 19.9131C20.1331 20.2051 19.8403 20.3508 19.5873 20.5459C19.3627 20.719 19.1617 20.9209 18.9886 21.1455C18.7936 21.3985 18.6478 21.6906 18.3558 22.2744L17.4925 24L16.6293 22.2744C16.3373 21.6906 16.1915 21.3985 15.9964 21.1455C15.8234 20.9209 15.6224 20.719 15.3978 20.5459C15.1448 20.3508 14.852 20.2051 14.2679 19.9131L12.5423 19.0508L14.2679 18.1875C14.852 17.8955 15.1447 17.7498 15.3978 17.5547C15.6224 17.3816 15.8234 17.1796 15.9964 16.9551C16.1915 16.7021 16.3373 16.41 16.6293 15.8262L17.4925 14.1006L18.3558 15.8262ZM27.7631 5.2832C28.0651 6.06861 28.2157 6.46164 28.4506 6.79199C28.6587 7.08472 28.9147 7.34065 29.2074 7.54883C29.5378 7.78374 29.9308 7.93522 30.7162 8.2373L33.9994 9.5L30.7162 10.7627C29.9308 11.0648 29.5378 11.2163 29.2074 11.4512C28.9147 11.6594 28.6587 11.9153 28.4506 12.208C28.2157 12.5384 28.0651 12.9314 27.7631 13.7168L26.4994 17L25.2367 13.7168C24.9346 12.9314 24.784 12.5384 24.5492 12.208C24.341 11.9153 24.085 11.6594 23.7923 11.4512C23.462 11.2163 23.069 11.0648 22.2836 10.7627L18.9994 9.5L22.2836 8.2373C23.069 7.93523 23.462 7.78373 23.7923 7.54883C24.085 7.34065 24.341 7.08471 24.5492 6.79199C24.784 6.46164 24.9346 6.0686 25.2367 5.2832L26.4994 2L27.7631 5.2832Z" fill="url(#paint0_linear_3654_29317)"/>
</g>
<defs>
<linearGradient id="paint0_linear_3654_29317" x1="31.5344" y1="-6.31645" x2="31.5344" y2="24.7956" gradientUnits="userSpaceOnUse">
<stop stop-color="#FAFAFF"/>
<stop offset="0.285" stop-color="#B1B1B4"/>
<stop offset="1" stop-color="#646465"/>
</linearGradient>
</defs>
</svg>
