<svg width="64" height="64" viewBox="0 0 64 64" fill="none" xmlns="http://www.w3.org/2000/svg">
<rect x="0.5" y="0.5" width="63" height="63" rx="7.5" stroke="#FAFAFF" stroke-opacity="0.1"/>
<g opacity="0.6">
<path fill-rule="evenodd" clip-rule="evenodd" d="M32.6037 15.7773C32.205 15.6953 31.7938 15.6953 31.395 15.7773C30.9341 15.8721 30.5222 16.1029 30.1947 16.2863L30.1054 16.3362L19.0054 22.5028L18.9107 22.5551C18.564 22.7461 18.1281 22.9862 17.7933 23.3495C17.5039 23.6635 17.2848 24.0358 17.1508 24.4413C16.9959 24.9104 16.9977 25.408 16.9991 25.8039L16.9994 25.9121V38.0877L16.9991 38.1959C16.9977 38.5917 16.9959 39.0894 17.1508 39.5584C17.2848 39.964 17.5039 40.3362 17.7933 40.6503C18.128 41.0135 18.5639 41.2536 18.9106 41.4446L19.0054 41.4969L30.1054 47.6636L30.1946 47.7135C30.5222 47.8969 30.9341 48.1276 31.395 48.2224C31.7938 48.3044 32.205 48.3044 32.6037 48.2224C33.0647 48.1276 33.4766 47.8969 33.8041 47.7135L33.8934 47.6636L44.9934 41.4969L45.0881 41.4446C45.4348 41.2536 45.8708 41.0135 46.2055 40.6503C46.4949 40.3362 46.714 39.964 46.8479 39.5584C47.0029 39.0894 47.0011 38.5917 46.9997 38.1959L46.9994 38.0877V25.9121L46.9997 25.8039C47.0011 25.408 47.0029 24.9104 46.8479 24.4413C46.714 24.0358 46.4949 23.6635 46.2055 23.3495C45.8707 22.9862 45.4348 22.7461 45.0881 22.5551L44.9934 22.5028L33.8934 16.3362L33.8041 16.2863C33.4766 16.1029 33.0647 15.8721 32.6037 15.7773ZM31.9994 36.4999C34.4847 36.4999 36.4994 34.4852 36.4994 31.9999C36.4994 29.5147 34.4847 27.4999 31.9994 27.4999C29.5141 27.4999 27.4994 29.5147 27.4994 31.9999C27.4994 34.4852 29.5141 36.4999 31.9994 36.4999Z" fill="url(#paint0_linear_4024_3921)"/>
</g>
<defs>
<linearGradient id="paint0_linear_4024_3921" x1="31.9994" y1="15.7158" x2="31.9994" y2="48.2839" gradientUnits="userSpaceOnUse">
<stop stop-color="#FAFAFF"/>
<stop offset="0.285" stop-color="#B1B1B4"/>
<stop offset="1" stop-color="#646465"/>
</linearGradient>
</defs>
</svg>
