<svg width="140" height="36" viewBox="0 0 140 36" fill="none" xmlns="http://www.w3.org/2000/svg">
<g clip-path="url(#clip0_4024_1513)">
<rect width="140" height="36" rx="10" fill="#6852D6"/>
<g opacity="0.8" filter="url(#filter0_f_4024_1513)">
<circle cx="58.7594" cy="1.96039" r="16" transform="rotate(145.275 58.7594 1.96039)" fill="#D8D2F4"/>
</g>
<path d="M12.56 15.608C12.56 15.02 12.7093 14.5067 13.008 14.068C13.316 13.62 13.736 13.27 14.268 13.018C14.8093 12.766 15.43 12.64 16.13 12.64C16.802 12.64 17.3853 12.7567 17.88 12.99C18.3747 13.2233 18.762 13.5593 19.042 13.998C19.322 14.4367 19.476 14.9547 19.504 15.552H17.908C17.88 15.076 17.7073 14.7073 17.39 14.446C17.0727 14.1847 16.648 14.054 16.116 14.054C15.5187 14.054 15.038 14.1893 14.674 14.46C14.3193 14.7307 14.142 15.0993 14.142 15.566C14.142 15.9487 14.2493 16.2567 14.464 16.49C14.688 16.7233 15.024 16.8913 15.472 16.994L17.124 17.372C17.9733 17.5587 18.608 17.8807 19.028 18.338C19.4573 18.786 19.672 19.3787 19.672 20.116C19.672 20.732 19.518 21.2733 19.21 21.74C18.9113 22.1973 18.4867 22.552 17.936 22.804C17.3853 23.056 16.7413 23.182 16.004 23.182C15.304 23.182 14.688 23.0653 14.156 22.832C13.624 22.5893 13.2087 22.2487 12.91 21.81C12.6113 21.3713 12.4527 20.858 12.434 20.27H14.016C14.0347 20.7273 14.2213 21.0913 14.576 21.362C14.9307 21.6233 15.4113 21.754 16.018 21.754C16.6527 21.754 17.1567 21.6187 17.53 21.348C17.9033 21.0773 18.09 20.7133 18.09 20.256C18.09 19.8733 17.9827 19.57 17.768 19.346C17.5627 19.1127 17.236 18.9447 16.788 18.842L15.15 18.478C14.3007 18.2913 13.6567 17.96 13.218 17.484C12.7793 16.9987 12.56 16.3733 12.56 15.608ZM20.9458 19.556C20.9458 18.8373 21.0904 18.2073 21.3798 17.666C21.6691 17.1247 22.0658 16.7 22.5698 16.392C23.0831 16.0747 23.6804 15.916 24.3618 15.916C25.2578 15.916 25.9998 16.154 26.5878 16.63C27.1758 17.0967 27.5211 17.7313 27.6238 18.534H26.0978C25.9951 18.114 25.7944 17.8013 25.4958 17.596C25.1971 17.3813 24.8331 17.274 24.4038 17.274C24.0211 17.274 23.6804 17.3673 23.3818 17.554C23.0924 17.7407 22.8638 18.002 22.6958 18.338C22.5371 18.674 22.4578 19.08 22.4578 19.556C22.4578 20.0133 22.5324 20.4147 22.6818 20.76C22.8404 21.096 23.0598 21.3573 23.3398 21.544C23.6291 21.7307 23.9698 21.824 24.3618 21.824C24.8098 21.824 25.1878 21.7167 25.4958 21.502C25.8038 21.278 26.0091 20.97 26.1118 20.578H27.6238C27.5491 21.0913 27.3624 21.544 27.0638 21.936C26.7651 22.3187 26.3824 22.622 25.9158 22.846C25.4491 23.07 24.9311 23.182 24.3618 23.182C23.6711 23.182 23.0691 23.0327 22.5558 22.734C22.0424 22.426 21.6458 22.0013 21.3658 21.46C21.0858 20.9187 20.9458 20.284 20.9458 19.556ZM30.7457 23H29.2477V12.64H30.7597V17.092C30.9743 16.7373 31.2777 16.4527 31.6697 16.238C32.0617 16.0233 32.519 15.916 33.0417 15.916C33.9003 15.916 34.5443 16.1727 34.9737 16.686C35.4123 17.1993 35.6317 17.8947 35.6317 18.772V23H34.1337V19.122C34.1337 18.702 34.0683 18.3567 33.9377 18.086C33.807 17.8153 33.625 17.6147 33.3917 17.484C33.1677 17.3533 32.9017 17.288 32.5937 17.288C32.2017 17.288 31.8657 17.3767 31.5857 17.554C31.315 17.722 31.105 17.9553 30.9557 18.254C30.8157 18.5433 30.7457 18.8747 30.7457 19.248V23ZM40.7001 23.182C40.0188 23.182 39.4168 23.028 38.8941 22.72C38.3808 22.412 37.9748 21.9873 37.6761 21.446C37.3868 20.8953 37.2421 20.2653 37.2421 19.556C37.2421 18.8373 37.3821 18.2073 37.6621 17.666C37.9514 17.1247 38.3528 16.7 38.8661 16.392C39.3794 16.0747 39.9721 15.916 40.6441 15.916C41.3161 15.916 41.8948 16.0607 42.3801 16.35C42.8748 16.63 43.2574 17.0313 43.5281 17.554C43.8081 18.0673 43.9481 18.674 43.9481 19.374V19.878L38.0401 19.892L38.0681 18.912H42.4361C42.4361 18.38 42.2728 17.96 41.9461 17.652C41.6288 17.3347 41.1948 17.176 40.6441 17.176C40.2241 17.176 39.8648 17.2647 39.5661 17.442C39.2768 17.6193 39.0528 17.8853 38.8941 18.24C38.7448 18.5853 38.6701 19.01 38.6701 19.514C38.6701 20.298 38.8428 20.8953 39.1881 21.306C39.5428 21.7167 40.0561 21.922 40.7281 21.922C41.2134 21.922 41.6148 21.8287 41.9321 21.642C42.2494 21.4553 42.4548 21.18 42.5481 20.816H43.9621C43.8034 21.5533 43.4348 22.132 42.8561 22.552C42.2868 22.972 41.5681 23.182 40.7001 23.182ZM48.4394 23.182C47.7767 23.182 47.2027 23.028 46.7174 22.72C46.2414 22.412 45.8727 21.992 45.6114 21.46C45.35 20.9187 45.2194 20.2933 45.2194 19.584C45.2194 18.8747 45.35 18.2447 45.6114 17.694C45.8727 17.1433 46.2507 16.7093 46.7454 16.392C47.24 16.0747 47.8327 15.916 48.5234 15.916C49.0274 15.916 49.48 16.0187 49.8814 16.224C50.292 16.4293 50.6094 16.728 50.8334 17.12V12.64H52.3454V23H50.9594L50.8614 21.838C50.6467 22.2673 50.32 22.5987 49.8814 22.832C49.452 23.0653 48.9714 23.182 48.4394 23.182ZM48.7614 21.796C49.1907 21.796 49.5547 21.7027 49.8534 21.516C50.1614 21.32 50.3994 21.054 50.5674 20.718C50.7354 20.3727 50.8194 19.9807 50.8194 19.542C50.8194 19.094 50.7354 18.702 50.5674 18.366C50.3994 18.0207 50.1614 17.7547 49.8534 17.568C49.5547 17.372 49.1907 17.274 48.7614 17.274C48.3414 17.274 47.9774 17.372 47.6694 17.568C47.3707 17.764 47.1374 18.03 46.9694 18.366C46.8107 18.702 46.7314 19.094 46.7314 19.542C46.7314 19.9807 46.8107 20.3727 46.9694 20.718C47.1374 21.054 47.3707 21.32 47.6694 21.516C47.9774 21.7027 48.3414 21.796 48.7614 21.796ZM59.1686 16.126H60.6806V23H59.2946L59.1546 22.02C58.9586 22.3653 58.6506 22.6453 58.2306 22.86C57.82 23.0747 57.372 23.182 56.8866 23.182C56.0933 23.182 55.4773 22.93 55.0386 22.426C54.6 21.922 54.3806 21.25 54.3806 20.41V16.112H55.8926V19.892C55.8926 20.5827 56.028 21.0773 56.2986 21.376C56.5693 21.6747 56.952 21.824 57.4466 21.824C58.016 21.824 58.4453 21.6513 58.7346 21.306C59.024 20.9607 59.1686 20.438 59.1686 19.738V16.126ZM64.3234 23H62.8114V12.64H64.3234V23ZM69.492 23.182C68.8107 23.182 68.2087 23.028 67.686 22.72C67.1727 22.412 66.7667 21.9873 66.468 21.446C66.1787 20.8953 66.034 20.2653 66.034 19.556C66.034 18.8373 66.174 18.2073 66.454 17.666C66.7433 17.1247 67.1447 16.7 67.658 16.392C68.1713 16.0747 68.764 15.916 69.436 15.916C70.108 15.916 70.6867 16.0607 71.172 16.35C71.6667 16.63 72.0493 17.0313 72.32 17.554C72.6 18.0673 72.74 18.674 72.74 19.374V19.878L66.832 19.892L66.86 18.912H71.228C71.228 18.38 71.0647 17.96 70.738 17.652C70.4207 17.3347 69.9867 17.176 69.436 17.176C69.016 17.176 68.6567 17.2647 68.358 17.442C68.0687 17.6193 67.8447 17.8853 67.686 18.24C67.5367 18.5853 67.462 19.01 67.462 19.514C67.462 20.298 67.6347 20.8953 67.98 21.306C68.3347 21.7167 68.848 21.922 69.52 21.922C70.0053 21.922 70.4067 21.8287 70.724 21.642C71.0413 21.4553 71.2467 21.18 71.34 20.816H72.754C72.5953 21.5533 72.2267 22.132 71.648 22.552C71.0787 22.972 70.36 23.182 69.492 23.182ZM80.542 23.182C79.814 23.182 79.24 22.986 78.82 22.594C78.4094 22.202 78.204 21.6933 78.204 21.068C78.204 20.4333 78.4234 19.9293 78.862 19.556C79.31 19.1733 79.94 18.9493 80.752 18.884L82.866 18.716V18.548C82.866 18.1933 82.8007 17.9133 82.67 17.708C82.5394 17.4933 82.362 17.3393 82.138 17.246C81.914 17.1527 81.6527 17.106 81.354 17.106C80.822 17.106 80.4114 17.2133 80.122 17.428C79.8327 17.6427 79.688 17.946 79.688 18.338H78.4C78.4 17.8433 78.5214 17.4187 78.764 17.064C79.016 16.7 79.3707 16.42 79.828 16.224C80.2854 16.0187 80.8174 15.916 81.424 15.916C82.0214 15.916 82.5347 16.0233 82.964 16.238C83.4027 16.4433 83.7387 16.756 83.972 17.176C84.2147 17.596 84.336 18.1233 84.336 18.758V23H83.034L82.894 21.936C82.7354 22.3093 82.4414 22.6127 82.012 22.846C81.5827 23.07 81.0927 23.182 80.542 23.182ZM81.018 22.02C81.5874 22.02 82.04 21.852 82.376 21.516C82.712 21.1707 82.88 20.7087 82.88 20.13V19.752L81.284 19.892C80.724 19.9387 80.3227 20.06 80.08 20.256C79.8467 20.452 79.73 20.6993 79.73 20.998C79.73 21.3433 79.842 21.6 80.066 21.768C80.29 21.936 80.6074 22.02 81.018 22.02ZM93.247 23.182C92.5844 23.182 92.0104 23.028 91.525 22.72C91.049 22.412 90.6804 21.992 90.419 21.46C90.1577 20.9187 90.027 20.2933 90.027 19.584C90.027 18.8747 90.1577 18.2447 90.419 17.694C90.6804 17.1433 91.0584 16.7093 91.553 16.392C92.0477 16.0747 92.6404 15.916 93.331 15.916C93.835 15.916 94.2877 16.0187 94.689 16.224C95.0997 16.4293 95.417 16.728 95.641 17.12V12.64H97.153V23H95.767L95.669 21.838C95.4544 22.2673 95.1277 22.5987 94.689 22.832C94.2597 23.0653 93.779 23.182 93.247 23.182ZM93.569 21.796C93.9984 21.796 94.3624 21.7027 94.661 21.516C94.969 21.32 95.207 21.054 95.375 20.718C95.543 20.3727 95.627 19.9807 95.627 19.542C95.627 19.094 95.543 18.702 95.375 18.366C95.207 18.0207 94.969 17.7547 94.661 17.568C94.3624 17.372 93.9984 17.274 93.569 17.274C93.149 17.274 92.785 17.372 92.477 17.568C92.1784 17.764 91.945 18.03 91.777 18.366C91.6184 18.702 91.539 19.094 91.539 19.542C91.539 19.9807 91.6184 20.3727 91.777 20.718C91.945 21.054 92.1784 21.32 92.477 21.516C92.785 21.7027 93.149 21.796 93.569 21.796ZM102.296 23.182C101.615 23.182 101.013 23.028 100.49 22.72C99.9769 22.412 99.5709 21.9873 99.2723 21.446C98.9829 20.8953 98.8383 20.2653 98.8383 19.556C98.8383 18.8373 98.9783 18.2073 99.2583 17.666C99.5476 17.1247 99.9489 16.7 100.462 16.392C100.976 16.0747 101.568 15.916 102.24 15.916C102.912 15.916 103.491 16.0607 103.976 16.35C104.471 16.63 104.854 17.0313 105.124 17.554C105.404 18.0673 105.544 18.674 105.544 19.374V19.878L99.6363 19.892L99.6643 18.912H104.032C104.032 18.38 103.869 17.96 103.542 17.652C103.225 17.3347 102.791 17.176 102.24 17.176C101.82 17.176 101.461 17.2647 101.162 17.442C100.873 17.6193 100.649 17.8853 100.49 18.24C100.341 18.5853 100.266 19.01 100.266 19.514C100.266 20.298 100.439 20.8953 100.784 21.306C101.139 21.7167 101.652 21.922 102.324 21.922C102.81 21.922 103.211 21.8287 103.528 21.642C103.846 21.4553 104.051 21.18 104.144 20.816H105.558C105.4 21.5533 105.031 22.132 104.452 22.552C103.883 22.972 103.164 23.182 102.296 23.182ZM108.748 23H107.25V16.126H108.622L108.804 17.372L108.622 17.218C108.762 16.8633 109.018 16.56 109.392 16.308C109.774 16.0467 110.241 15.916 110.792 15.916C111.398 15.916 111.898 16.0793 112.29 16.406C112.682 16.7233 112.948 17.148 113.088 17.68H112.822C112.924 17.148 113.186 16.7233 113.606 16.406C114.035 16.0793 114.553 15.916 115.16 15.916C115.972 15.916 116.602 16.1493 117.05 16.616C117.498 17.0733 117.722 17.7033 117.722 18.506V23H116.224V18.884C116.224 18.3707 116.093 17.9787 115.832 17.708C115.58 17.428 115.234 17.288 114.796 17.288C114.497 17.288 114.231 17.3533 113.998 17.484C113.764 17.6147 113.578 17.8107 113.438 18.072C113.307 18.324 113.242 18.6367 113.242 19.01V23H111.744V18.87C111.744 18.3567 111.613 17.9647 111.352 17.694C111.1 17.4233 110.754 17.288 110.316 17.288C110.017 17.288 109.746 17.358 109.504 17.498C109.27 17.6287 109.084 17.82 108.944 18.072C108.813 18.324 108.748 18.6367 108.748 19.01V23ZM119.332 19.556C119.332 18.8373 119.486 18.2073 119.794 17.666C120.111 17.1247 120.545 16.7 121.096 16.392C121.647 16.084 122.272 15.93 122.972 15.93C123.672 15.93 124.293 16.084 124.834 16.392C125.375 16.7 125.805 17.1247 126.122 17.666C126.439 18.2073 126.598 18.8373 126.598 19.556C126.598 20.2653 126.439 20.8907 126.122 21.432C125.805 21.9733 125.375 22.398 124.834 22.706C124.293 23.014 123.672 23.168 122.972 23.168C122.272 23.168 121.647 23.014 121.096 22.706C120.545 22.398 120.111 21.9733 119.794 21.432C119.486 20.8907 119.332 20.2653 119.332 19.556ZM120.844 19.542C120.844 19.99 120.933 20.3867 121.11 20.732C121.297 21.068 121.549 21.334 121.866 21.53C122.183 21.7167 122.552 21.81 122.972 21.81C123.383 21.81 123.747 21.7167 124.064 21.53C124.381 21.334 124.629 21.068 124.806 20.732C124.983 20.3867 125.072 19.99 125.072 19.542C125.072 19.094 124.983 18.702 124.806 18.366C124.629 18.03 124.381 17.7687 124.064 17.582C123.747 17.386 123.383 17.288 122.972 17.288C122.552 17.288 122.183 17.386 121.866 17.582C121.549 17.7687 121.297 18.03 121.11 18.366C120.933 18.702 120.844 19.094 120.844 19.542Z" fill="#FCFCFE"/>
</g>
<defs>
<filter id="filter0_f_4024_1513" x="12.7579" y="-44.041" width="92.0029" height="92.0029" filterUnits="userSpaceOnUse" color-interpolation-filters="sRGB">
<feFlood flood-opacity="0" result="BackgroundImageFix"/>
<feBlend mode="normal" in="SourceGraphic" in2="BackgroundImageFix" result="shape"/>
<feGaussianBlur stdDeviation="15" result="effect1_foregroundBlur_4024_1513"/>
</filter>
<clipPath id="clip0_4024_1513">
<rect width="140" height="36" rx="10" fill="white"/>
</clipPath>
</defs>
</svg>
