<svg width="64" height="64" viewBox="0 0 64 64" fill="none" xmlns="http://www.w3.org/2000/svg">
<rect x="0.5" y="0.5" width="63" height="63" rx="7.5" stroke="#FAFAFF" stroke-opacity="0.1"/>
<g opacity="0.6">
<path d="M31.9993 29.7493C30.7566 29.7493 29.7493 30.7566 29.7493 31.9993C29.7493 33.2419 30.7566 34.2493 31.9993 34.2493C33.2419 34.2493 34.2493 33.2419 34.2493 31.9993C34.2493 30.7566 33.2419 29.7493 31.9993 29.7493Z" fill="url(#paint0_linear_4024_3678)"/>
<path fill-rule="evenodd" clip-rule="evenodd" d="M36.6781 17.8622C35.181 18.4786 33.6012 19.3313 31.9991 20.3902C30.3971 19.3313 28.8173 18.4787 27.3203 17.8623C25.5802 17.1457 23.8804 16.7189 22.3471 16.7074C20.8063 16.6958 19.3124 17.109 18.2106 18.2107C17.1089 19.3124 16.6957 20.8064 16.7073 22.3471C16.7188 23.8805 17.1457 25.5803 17.8622 27.3204C18.4786 28.8174 19.3313 30.3972 20.3901 31.9992C19.3313 33.6013 18.4786 35.1811 17.8622 36.6781C17.1456 38.4183 16.7188 40.118 16.7073 41.6514C16.6957 43.1921 17.1089 44.6861 18.2106 45.7878C19.3123 46.8895 20.8063 47.3027 22.347 47.2911C23.8804 47.2796 25.5801 46.8528 27.3203 46.1362C28.8173 45.5198 30.3971 44.6672 31.9991 43.6083C33.6012 44.6672 35.181 45.5199 36.6781 46.1363C38.4183 46.8529 40.118 47.2798 41.6514 47.2913C43.1922 47.3028 44.6861 46.8896 45.7878 45.7879C46.8895 44.6862 47.3027 43.1923 47.2912 41.6515C47.2797 40.1181 46.8528 38.4184 46.1362 36.6782C45.5198 35.1811 44.6671 33.6013 43.6082 31.9992C44.6671 30.3972 45.5198 28.8174 46.1362 27.3203C46.8528 25.5801 47.2796 23.8804 47.2911 22.347C47.3027 20.8063 46.8895 19.3123 45.7878 18.2106C44.6861 17.1089 43.1922 16.6957 41.6514 16.7073C40.118 16.7188 38.4183 17.1456 36.6781 17.8622ZM37.8203 20.6362C36.8048 21.0544 35.725 21.6074 34.61 22.2857C35.8775 23.2892 37.1385 24.4106 38.3632 25.6354C39.5879 26.86 40.7093 28.1209 41.7127 29.3884C42.391 28.2734 42.944 27.1936 43.3622 26.1781C43.9892 24.6553 44.2836 23.3483 44.2912 22.3245C44.2989 21.3082 44.0292 20.6947 43.6665 20.3319C43.3037 19.9692 42.6902 19.6996 41.6739 19.7072C40.6501 19.7149 39.3432 20.0092 37.8203 20.6362ZM20.6362 26.1782C21.0544 27.1937 21.6074 28.2735 22.2856 29.3884C23.2891 28.1209 24.4105 26.86 25.6352 25.6352C26.8599 24.4106 28.1208 23.2892 29.3883 22.2857C28.2734 21.6075 27.1936 21.0545 26.1781 20.6363C24.6553 20.0093 23.3483 19.715 22.3246 19.7073C21.3082 19.6997 20.6947 19.9693 20.332 20.3321C19.9692 20.6948 19.6996 21.3083 19.7072 22.3246C19.7149 23.3484 20.0092 24.6554 20.6362 26.1782ZM27.7566 27.7566C26.3589 29.1542 25.1209 30.5864 24.0604 31.9992C25.1209 33.4121 26.3589 34.8443 27.7566 36.242C29.1542 37.6396 30.5863 38.8775 31.9991 39.938C33.412 38.8775 34.8442 37.6395 36.2418 36.2418C37.6395 34.8442 38.8774 33.4121 39.938 31.9992C38.8774 30.5864 37.6395 29.1543 36.2419 27.7567C34.8442 26.359 33.412 25.121 31.9991 24.0605C30.5863 25.121 29.1542 26.3589 27.7566 27.7566ZM20.6362 37.8203C21.0544 36.8048 21.6074 35.725 22.2856 34.6101C23.2891 35.8776 24.4105 37.1385 25.6353 38.3633C26.8599 39.588 28.1208 40.7094 29.3883 41.7128C28.2734 42.391 27.1936 42.944 26.1781 43.3622C24.6553 43.9892 23.3483 44.2836 22.3245 44.2912C21.3082 44.2989 20.6947 44.0292 20.3319 43.6665C19.9692 43.3037 19.6996 42.6902 19.7072 41.6739C19.7149 40.6501 20.0092 39.3432 20.6362 37.8203ZM37.8203 43.3623C36.8048 42.9441 35.725 42.3911 34.61 41.7128C35.8775 40.7093 37.1384 39.5879 38.3632 38.3632C39.5879 37.1385 40.7093 35.8776 41.7127 34.6101C42.391 35.7251 42.944 36.8049 43.3622 37.8204C43.9893 39.3433 44.2836 40.6502 44.2912 41.674C44.2989 42.6903 44.0292 43.3038 43.6665 43.6666C43.3037 44.0293 42.6902 44.299 41.6739 44.2913C40.6502 44.2837 39.3432 43.9893 37.8203 43.3623Z" fill="url(#paint1_linear_4024_3678)"/>
</g>
<defs>
<linearGradient id="paint0_linear_4024_3678" x1="31.9992" y1="16.707" x2="31.9992" y2="47.2915" gradientUnits="userSpaceOnUse">
<stop stop-color="#FAFAFF"/>
<stop offset="0.285" stop-color="#B1B1B4"/>
<stop offset="1" stop-color="#646465"/>
</linearGradient>
<linearGradient id="paint1_linear_4024_3678" x1="31.9992" y1="16.707" x2="31.9992" y2="47.2915" gradientUnits="userSpaceOnUse">
<stop stop-color="#FAFAFF"/>
<stop offset="0.285" stop-color="#B1B1B4"/>
<stop offset="1" stop-color="#646465"/>
</linearGradient>
</defs>
</svg>
