<svg width="64" height="64" viewBox="0 0 64 64" fill="none" xmlns="http://www.w3.org/2000/svg">
<rect x="0.5" y="0.5" width="63" height="63" rx="7.5" stroke="#FAFAFF" stroke-opacity="0.1"/>
<g opacity="0.6">
<path d="M22.2494 17.001C22.2494 16.1725 21.5778 15.501 20.7494 15.501C19.921 15.501 19.2494 16.1725 19.2494 17.001V19.251H16.9994C16.171 19.251 15.4994 19.9225 15.4994 20.751C15.4994 21.5794 16.171 22.251 16.9994 22.251H19.2494V24.501C19.2494 25.3294 19.921 26.001 20.7494 26.001C21.5778 26.001 22.2494 25.3294 22.2494 24.501V22.251H24.4994C25.3278 22.251 25.9994 21.5794 25.9994 20.751C25.9994 19.9225 25.3278 19.251 24.4994 19.251H22.2494V17.001Z" fill="url(#paint0_linear_4024_3610)"/>
<path d="M22.2494 39.501C22.2494 38.6725 21.5778 38.001 20.7494 38.001C19.921 38.001 19.2494 38.6725 19.2494 39.501V41.751H16.9994C16.171 41.751 15.4994 42.4225 15.4994 43.251C15.4994 44.0794 16.171 44.751 16.9994 44.751H19.2494V47.001C19.2494 47.8294 19.921 48.501 20.7494 48.501C21.5778 48.501 22.2494 47.8294 22.2494 47.001V44.751H24.4994C25.3278 44.751 25.9994 44.0794 25.9994 43.251C25.9994 42.4225 25.3278 41.751 24.4994 41.751H22.2494V39.501Z" fill="url(#paint1_linear_4024_3610)"/>
<path d="M34.8994 17.9625C34.6766 17.3832 34.12 17.001 33.4994 17.001C32.8787 17.001 32.3222 17.3832 32.0994 17.9625L29.4981 24.7258C29.0475 25.8974 28.9059 26.235 28.7122 26.5074C28.5179 26.7807 28.2791 27.0195 28.0058 27.2138C27.7334 27.4075 27.3958 27.5491 26.2242 27.9997L19.4609 30.601C18.8816 30.8238 18.4994 31.3803 18.4994 32.001C18.4994 32.6216 18.8816 33.1782 19.4609 33.401L26.2242 36.0023C27.3958 36.4529 27.7334 36.5945 28.0058 36.7881C28.2791 36.9825 28.5179 37.2213 28.7122 37.4946C28.9059 37.767 29.0475 38.1046 29.4981 39.2762L32.0994 46.0394C32.3222 46.6187 32.8787 47.001 33.4994 47.001C34.12 47.001 34.6766 46.6187 34.8994 46.0394L37.5007 39.2761C37.9513 38.1046 38.0929 37.767 38.2866 37.4946C38.4809 37.2213 38.7197 36.9825 38.993 36.7881C39.2654 36.5945 39.603 36.4529 40.7746 36.0023L47.5379 33.401C48.1171 33.1782 48.4994 32.6216 48.4994 32.001C48.4994 31.3803 48.1171 30.8238 47.5379 30.601L40.7746 27.9997C39.603 27.5491 39.2654 27.4075 38.993 27.2138C38.7197 27.0195 38.4809 26.7807 38.2866 26.5074C38.0929 26.235 37.9513 25.8974 37.5007 24.7258L34.8994 17.9625Z" fill="url(#paint2_linear_4024_3610)"/>
</g>
<defs>
<linearGradient id="paint0_linear_4024_3610" x1="31.9994" y1="15.501" x2="31.9994" y2="48.501" gradientUnits="userSpaceOnUse">
<stop stop-color="#FAFAFF"/>
<stop offset="0.285" stop-color="#B1B1B4"/>
<stop offset="1" stop-color="#646465"/>
</linearGradient>
<linearGradient id="paint1_linear_4024_3610" x1="31.9994" y1="15.501" x2="31.9994" y2="48.501" gradientUnits="userSpaceOnUse">
<stop stop-color="#FAFAFF"/>
<stop offset="0.285" stop-color="#B1B1B4"/>
<stop offset="1" stop-color="#646465"/>
</linearGradient>
<linearGradient id="paint2_linear_4024_3610" x1="31.9994" y1="15.501" x2="31.9994" y2="48.501" gradientUnits="userSpaceOnUse">
<stop stop-color="#FAFAFF"/>
<stop offset="0.285" stop-color="#B1B1B4"/>
<stop offset="1" stop-color="#646465"/>
</linearGradient>
</defs>
</svg>
